<svg viewBox="0 0 120 120" fill="none" xmlns="http://www.w3.org/2000/svg">
  <rect width="120" height="120" rx="28" fill="#0B0F19"/>
  <!-- Google DeepMind / Google official brand mark -->
  <g transform="translate(30, 30)">
    <path d="M58.8 30.6c0-2.1-.2-4.1-.5-6H30v11.4h16.2c-.7 3.8-2.8 7-6 9.1v7.6h9.7c5.7-5.2 8.9-12.9 8.9-22.1z" fill="#4285F4"/>
    <path d="M30 60c8.1 0 14.9-2.7 19.9-7.3l-9.7-7.6c-2.7 1.8-6.2 2.9-10.2 2.9-7.8 0-14.5-5.3-16.8-12.4H3.2v7.8C8.2 53.4 18.3 60 30 60z" fill="#34A853"/>
    <path d="M13.2 35.6c-.6-1.8-.9-3.7-.9-5.6 0-1.9.3-3.8.9-5.6V16.6H3.2C1.2 20.6 0 25.2 0 30s1.2 9.4 3.2 13.4l10-7.8z" fill="#FBBC05"/>
    <path d="M30 11.9c4.4 0 8.4 1.5 11.5 4.5l8.6-8.6C44.9 3 38.1 0 30 0 18.3 0 8.2 6.6 3.2 16.6l10 7.8c2.3-7.1 9-12.5 16.8-12.5z" fill="#EA4335"/>
  </g>
</svg>
